<mxfile host="app.diagrams.net" agent="Mozilla/5.0 (Windows NT 10.0; Win64; x64) AppleWebKit/537.36 (KHTML, like Gecko) Chrome/129.0.0.0 Safari/537.36" version="24.7.16">
  <diagram name="Page-1" id="_Ofes3p6zx8Fjp4ANKK7">
    <mxGraphModel dx="880" dy="460" grid="1" gridSize="10" guides="1" tooltips="1" connect="1" arrows="1" fold="1" page="1" pageScale="1" pageWidth="850" pageHeight="1100" math="0" shadow="0">
      <root>
        <mxCell id="0" />
        <mxCell id="1" parent="0" />
        <mxCell id="tUFo77nfFVt9CyCWEOvF-10" style="edgeStyle=orthogonalEdgeStyle;rounded=0;orthogonalLoop=1;jettySize=auto;html=1;exitX=0.5;exitY=1;exitDx=0;exitDy=0;entryX=0.5;entryY=0;entryDx=0;entryDy=0;" edge="1" parent="1" source="tUFo77nfFVt9CyCWEOvF-1" target="tUFo77nfFVt9CyCWEOvF-4">
          <mxGeometry relative="1" as="geometry" />
        </mxCell>
        <mxCell id="tUFo77nfFVt9CyCWEOvF-1" value="" style="ellipse;whiteSpace=wrap;html=1;" vertex="1" parent="1">
          <mxGeometry x="60" y="110" width="140" height="80" as="geometry" />
        </mxCell>
        <mxCell id="tUFo77nfFVt9CyCWEOvF-2" value="&lt;h1 style=&quot;margin-top: 0px;&quot;&gt;Pre-registration process for students in portal system&amp;nbsp;&amp;nbsp;&lt;/h1&gt;" style="text;html=1;whiteSpace=wrap;overflow=hidden;rounded=0;align=center;" vertex="1" parent="1">
          <mxGeometry x="135" y="20" width="580" height="70" as="geometry" />
        </mxCell>
        <mxCell id="tUFo77nfFVt9CyCWEOvF-3" value="Login to the system as student" style="text;html=1;align=center;verticalAlign=middle;whiteSpace=wrap;rounded=0;" vertex="1" parent="1">
          <mxGeometry x="80" y="135" width="100" height="30" as="geometry" />
        </mxCell>
        <mxCell id="tUFo77nfFVt9CyCWEOvF-11" style="edgeStyle=orthogonalEdgeStyle;rounded=0;orthogonalLoop=1;jettySize=auto;html=1;exitX=1;exitY=0.5;exitDx=0;exitDy=0;entryX=0;entryY=0.5;entryDx=0;entryDy=0;" edge="1" parent="1" source="tUFo77nfFVt9CyCWEOvF-4" target="tUFo77nfFVt9CyCWEOvF-7">
          <mxGeometry relative="1" as="geometry" />
        </mxCell>
        <mxCell id="tUFo77nfFVt9CyCWEOvF-12" value="No" style="edgeLabel;html=1;align=center;verticalAlign=middle;resizable=0;points=[];" vertex="1" connectable="0" parent="tUFo77nfFVt9CyCWEOvF-11">
          <mxGeometry x="-0.3091" y="1" relative="1" as="geometry">
            <mxPoint as="offset" />
          </mxGeometry>
        </mxCell>
        <mxCell id="tUFo77nfFVt9CyCWEOvF-15" style="edgeStyle=orthogonalEdgeStyle;rounded=0;orthogonalLoop=1;jettySize=auto;html=1;exitX=0.5;exitY=1;exitDx=0;exitDy=0;entryX=0.5;entryY=0;entryDx=0;entryDy=0;" edge="1" parent="1" source="tUFo77nfFVt9CyCWEOvF-4" target="tUFo77nfFVt9CyCWEOvF-13">
          <mxGeometry relative="1" as="geometry" />
        </mxCell>
        <mxCell id="tUFo77nfFVt9CyCWEOvF-19" value="Yes" style="edgeLabel;html=1;align=center;verticalAlign=middle;resizable=0;points=[];" vertex="1" connectable="0" parent="tUFo77nfFVt9CyCWEOvF-15">
          <mxGeometry x="-0.4" y="1" relative="1" as="geometry">
            <mxPoint as="offset" />
          </mxGeometry>
        </mxCell>
        <mxCell id="tUFo77nfFVt9CyCWEOvF-4" value="" style="rhombus;whiteSpace=wrap;html=1;" vertex="1" parent="1">
          <mxGeometry x="75" y="220" width="110" height="100" as="geometry" />
        </mxCell>
        <mxCell id="tUFo77nfFVt9CyCWEOvF-5" value="Are login credentials valid?" style="text;html=1;align=center;verticalAlign=middle;whiteSpace=wrap;rounded=0;" vertex="1" parent="1">
          <mxGeometry x="100" y="255" width="60" height="30" as="geometry" />
        </mxCell>
        <mxCell id="tUFo77nfFVt9CyCWEOvF-6" value="" style="rounded=0;whiteSpace=wrap;html=1;" vertex="1" parent="1">
          <mxGeometry x="260" y="235" width="140" height="70" as="geometry" />
        </mxCell>
        <mxCell id="tUFo77nfFVt9CyCWEOvF-7" value="Show error message:&lt;div&gt;&quot;Incorrect username/password&quot;&lt;/div&gt;" style="text;html=1;align=center;verticalAlign=middle;whiteSpace=wrap;rounded=0;" vertex="1" parent="1">
          <mxGeometry x="260" y="250" width="140" height="40" as="geometry" />
        </mxCell>
        <mxCell id="tUFo77nfFVt9CyCWEOvF-18" style="edgeStyle=orthogonalEdgeStyle;rounded=0;orthogonalLoop=1;jettySize=auto;html=1;exitX=0.5;exitY=1;exitDx=0;exitDy=0;entryX=0.5;entryY=0;entryDx=0;entryDy=0;" edge="1" parent="1" source="tUFo77nfFVt9CyCWEOvF-13" target="tUFo77nfFVt9CyCWEOvF-16">
          <mxGeometry relative="1" as="geometry" />
        </mxCell>
        <mxCell id="tUFo77nfFVt9CyCWEOvF-13" value="" style="rounded=0;whiteSpace=wrap;html=1;" vertex="1" parent="1">
          <mxGeometry x="60" y="370" width="140" height="70" as="geometry" />
        </mxCell>
        <mxCell id="tUFo77nfFVt9CyCWEOvF-14" value="View Dashboard" style="text;html=1;align=center;verticalAlign=middle;whiteSpace=wrap;rounded=0;" vertex="1" parent="1">
          <mxGeometry x="60" y="385" width="140" height="40" as="geometry" />
        </mxCell>
        <mxCell id="tUFo77nfFVt9CyCWEOvF-16" value="" style="rounded=0;whiteSpace=wrap;html=1;" vertex="1" parent="1">
          <mxGeometry x="60" y="480" width="140" height="70" as="geometry" />
        </mxCell>
        <mxCell id="tUFo77nfFVt9CyCWEOvF-17" value="View Pre-registration form" style="text;html=1;align=center;verticalAlign=middle;whiteSpace=wrap;rounded=0;" vertex="1" parent="1">
          <mxGeometry x="60" y="495" width="140" height="40" as="geometry" />
        </mxCell>
      </root>
    </mxGraphModel>
  </diagram>
</mxfile>
